<svg width="27" height="28" viewBox="0 0 27 28" fill="none" xmlns="http://www.w3.org/2000/svg">
    <path d="M26.8895 13.6246C26.8895 16.7818 25.9703 19.5315 24.1312 21.8731L21.025 17.4144C21.5478 16.2915 21.8086 15.0286 21.8086 13.6246C21.8086 11.1701 21.0109 9.14505 19.4154 7.5496C17.82 5.95414 15.8441 5.15642 13.4877 5.15642C11.1313 5.15642 9.15541 5.95414 7.55996 7.5496C5.9645 9.14505 5.16677 11.1701 5.16677 13.6246C5.16677 16.0791 5.9645 18.1041 7.55996 19.6996C9.13087 21.2705 11.1068 22.056 13.4877 22.056C13.8233 22.056 14.151 22.0406 14.4707 22.0087L17.5635 26.4484C16.2896 26.8337 14.931 27.0264 13.4877 27.0264C9.75678 27.0264 6.59041 25.7378 3.98859 23.1605C1.41132 20.5341 0.122681 17.3555 0.122681 13.6246C0.122681 9.86914 1.41132 6.70278 3.98859 4.12551C6.59041 1.52369 9.75678 0.222778 13.4877 0.222778C17.2186 0.222778 20.385 1.52369 22.9868 4.12551C25.5886 6.70278 26.8895 9.86914 26.8895 13.6246Z" fill="url(#paint0_linear_296_1504)"/>
    <path d="M26.012 27.0264L15.8981 12.5078L11.9106 15.2857L20.0898 27.0264H26.012Z" fill="url(#paint1_linear_296_1504)"/>
    <defs>
        <linearGradient id="paint0_linear_296_1504" x1="0.122681" y1="13.7498" x2="26.8895" y2="13.7498" gradientUnits="userSpaceOnUse">
            <stop stop-color="#5E45F9"/>
            <stop offset="1" stop-color="#14008E"/>
        </linearGradient>
        <linearGradient id="paint1_linear_296_1504" x1="11.9106" y1="19.8349" x2="26.012" y2="19.8349" gradientUnits="userSpaceOnUse">
            <stop stop-color="#5E45F9"/>
            <stop offset="1" stop-color="#14008E"/>
        </linearGradient>
    </defs>
</svg>
