<svg width="171" height="40" viewBox="0 0 171 40" fill="none" xmlns="http://www.w3.org/2000/svg">
    <g clip-path="url(#clip0_267_27279)">
        <path d="M29.8774 20.0273C29.8774 23.5352 28.856 26.5905 26.8126 29.1923L23.3613 24.2382C23.9422 22.9905 24.2319 21.5873 24.2319 20.0273C24.2319 17.3 23.3456 15.05 21.5728 13.2773C19.8001 11.5045 17.6047 10.6182 14.9865 10.6182C12.3683 10.6182 10.1728 11.5045 8.40012 13.2773C6.62739 15.05 5.74102 17.3 5.74102 20.0273C5.74102 22.7545 6.62739 25.0045 8.40012 26.7773C10.1456 28.5227 12.341 29.3955 14.9865 29.3955C15.3594 29.3955 15.7235 29.3784 16.0788 29.343L19.5151 34.2759C18.0997 34.7041 16.5901 34.9182 14.9865 34.9182C10.841 34.9182 7.32284 33.4864 4.43193 30.6227C1.56829 27.7045 0.136475 24.1727 0.136475 20.0273C0.136475 15.8545 1.56829 12.3364 4.43193 9.47272C7.32284 6.58181 10.841 5.13635 14.9865 5.13635C19.1319 5.13635 22.6501 6.58181 25.541 9.47272C28.4319 12.3364 29.8774 15.8545 29.8774 20.0273Z" fill="white"/>
        <path d="M28.9023 34.9182L17.6646 18.7864L13.2341 21.873L22.3221 34.9182H28.9023Z" fill="white"/>
    </g>
    <path d="M53.5625 30L52.0723 25.2969H45.1406L43.623 30H39.4805L46.3301 10.2715H51.1836L58.0332 30H53.5625ZM48.5039 14.373L46.0293 22.1113H51.1973L48.75 14.373H48.5039ZM88.2871 30H84.459V16.8066H84.2402L79.2227 28.8652H76.4746L71.4434 16.8066H71.2246V30H67.3965V10.2715H72.2637L77.7188 23.5332H77.9648L83.4336 10.2715H88.2871V30ZM107.986 30H103.857V13.7988H97.9375V10.2715H113.906V13.7988H107.986V30ZM131.5 9.76562C137.324 9.76562 140.975 13.7441 140.975 20.1289C140.975 26.5273 137.338 30.5059 131.5 30.5059C125.648 30.5059 121.998 26.5273 121.998 20.1289C121.998 13.7305 125.703 9.76562 131.5 9.76562ZM131.5 13.3887C128.301 13.3887 126.223 16 126.223 20.1289C126.223 24.2441 128.26 26.8828 131.5 26.8828C134.713 26.8828 136.764 24.2441 136.764 20.1289C136.764 16 134.713 13.3887 131.5 13.3887ZM159.512 9.76562C165.336 9.76562 168.986 13.7441 168.986 20.1289C168.986 26.5273 165.35 30.5059 159.512 30.5059C153.66 30.5059 150.01 26.5273 150.01 20.1289C150.01 13.7305 153.715 9.76562 159.512 9.76562ZM159.512 13.3887C156.312 13.3887 154.234 16 154.234 20.1289C154.234 24.2441 156.271 26.8828 159.512 26.8828C162.725 26.8828 164.775 24.2441 164.775 20.1289C164.775 16 162.725 13.3887 159.512 13.3887Z" fill="white"/>
    <defs>
        <clipPath id="clip0_267_27279">
            <rect width="30" height="30" fill="white" transform="translate(0 5)"/>
        </clipPath>
    </defs>
</svg>
