<svg width="28" height="28" viewBox="0 0 28 28" fill="none" xmlns="http://www.w3.org/2000/svg">
    <path d="M24.5 3.5L17.0495 24.1322C16.9992 24.2419 16.9184 24.3349 16.8169 24.4001C16.7153 24.4653 16.5971 24.5 16.4764 24.5C16.3556 24.5 16.2375 24.4653 16.1359 24.4001C16.0343 24.3349 15.9535 24.2419 15.9032 24.1322L11.8914 16.1086L3.86779 12.0968C3.75805 12.0465 3.66505 11.9657 3.59986 11.8641C3.53466 11.7625 3.5 11.6444 3.5 11.5236C3.5 11.4029 3.53466 11.2847 3.59986 11.1831C3.66505 11.0815 3.75805 11.0008 3.86779 10.9505L24.5 3.5Z" stroke="currentColor" stroke-width="1.3" stroke-linecap="round" stroke-linejoin="round"/>
</svg>
