<svg width="24" height="24" viewBox="0 0 24 24" fill="none" xmlns="http://www.w3.org/2000/svg">
    <path d="M19.2494 5.64976C18.8306 5.21734 18.3332 4.87431 17.7858 4.64027C17.2385 4.40623 16.6517 4.28577 16.0592 4.28577C15.4667 4.28577 14.88 4.40623 14.3326 4.64027C13.7852 4.87431 13.2879 5.21734 12.869 5.64976L11.9997 6.54678L11.1304 5.64976C10.2843 4.7767 9.1367 4.28622 7.94013 4.28622C6.74356 4.28622 5.596 4.7767 4.7499 5.64976C3.9038 6.52283 3.42847 7.70696 3.42847 8.94165C3.42847 10.1764 3.9038 11.3605 4.7499 12.2335L5.61922 13.1306L11.9997 19.7143L18.3801 13.1306L19.2494 12.2335C19.6685 11.8013 20.001 11.2881 20.2278 10.7233C20.4546 10.1585 20.5713 9.55305 20.5713 8.94165C20.5713 8.33025 20.4546 7.72484 20.2278 7.16001C20.001 6.59518 19.6685 6.08199 19.2494 5.64976V5.64976Z" stroke="#5E45F9" stroke-width="1.3" stroke-linecap="round" stroke-linejoin="round"/>
</svg>
