<svg width="32" height="32" viewBox="0 0 32 32" fill="none" xmlns="http://www.w3.org/2000/svg">
    <circle cx="16" cy="16" r="16" fill="#2E87FF"/>
    <path d="M14.743 17.9909V12.2073H16.9886V15.4105C18.7851 15.197 19.9204 13.1861 20.2634 12.2073H22.6026C22.3219 14.2538 20.4662 15.8258 19.5149 16.3003C21.1055 16.7897 23.0704 19.1477 23.0704 20.4824H20.6377C19.7395 18.2045 17.8307 17.5164 16.9886 17.4571V20.4824C11.7022 20.8383 8.89518 16.6563 9.03554 12.2073H11.3747C11.515 16.3893 13.7606 17.635 14.743 17.9909Z" fill="white"/>
</svg>
<svg width="32" height="32" viewBox="0 0 32 32" fill="none" xmlns="http://www.w3.org/2000/svg">
<circle cx="16" cy="16" r="16" fill="#2E87FF"/>
<path d="M14.743 17.9909V12.2073H16.9886V15.4105C18.7851 15.197 19.9204 13.1861 20.2634 12.2073H22.6026C22.3219 14.2538 20.4662 15.8258 19.5149 16.3003C21.1055 16.7897 23.0704 19.1477 23.0704 20.4824H20.6377C19.7395 18.2045 17.8307 17.5164 16.9886 17.4571V20.4824C11.7022 20.8383 8.89518 16.6563 9.03554 12.2073H11.3747C11.515 16.3893 13.7606 17.635 14.743 17.9909Z" fill="white"/>
</svg>
